<?xml version="1.0" encoding="utf-8"?>
<!-- Generator: Adobe Illustrator 24.1.3, SVG Export Plug-In . SVG Version: 6.00 Build 0)  -->
<svg version="1.1" id="Layer_2" xmlns="http://www.w3.org/2000/svg" xmlns:xlink="http://www.w3.org/1999/xlink" x="0px" y="0px"
	 viewBox="0 0 1024 1024" style="enable-background:new 0 0 1024 1024;" xml:space="preserve">
<g>
	<path d="M951.63,223.95H72.37C32.47,223.95,0,256.42,0,296.32v431.36c0,39.9,32.47,72.37,72.37,72.37h879.25
		c39.91,0,72.37-32.47,72.37-72.37V296.32C1024,256.42,991.53,223.95,951.63,223.95z M1000.51,727.68
		c0,26.96-21.93,48.89-48.88,48.89H72.37c-26.96,0-48.88-21.93-48.88-48.89V296.32c0-26.96,21.93-48.89,48.88-48.89h879.25
		c26.96,0,48.88,21.93,48.88,48.89V727.68z"/>
	<path d="M194.33,320.82h-51.22c-4.57,0-8.28,3.71-8.28,8.28v41.81c0,4.57,3.71,8.28,8.28,8.28h51.22c4.57,0,8.28-3.71,8.28-8.28
		v-41.81C202.61,324.52,198.9,320.82,194.33,320.82z"/>
	<path d="M194.33,541.65h-51.22c-4.57,0-8.28,3.71-8.28,8.28v41.81c0,4.57,3.71,8.28,8.28,8.28h51.22c4.57,0,8.28-3.71,8.28-8.28
		v-41.81C202.61,545.36,198.9,541.65,194.33,541.65z"/>
	<path d="M194.33,652.08h-51.22c-4.57,0-8.28,3.71-8.28,8.28v41.81c0,4.57,3.71,8.28,8.28,8.28h51.22c4.57,0,8.28-3.71,8.28-8.28
		v-41.81C202.61,655.79,198.9,652.08,194.33,652.08z"/>
	<path d="M330.42,320.82h-51.22c-4.57,0-8.28,3.71-8.28,8.28v41.81c0,4.57,3.71,8.28,8.28,8.28h51.22c4.57,0,8.28-3.71,8.28-8.28
		v-41.81C338.7,324.52,334.99,320.82,330.42,320.82z"/>
	<path d="M330.42,431.24h-51.22c-4.57,0-8.28,3.71-8.28,8.28v41.81c0,4.57,3.71,8.28,8.28,8.28h51.22c4.57,0,8.28-3.71,8.28-8.28
		v-41.81C338.7,434.95,334.99,431.24,330.42,431.24z"/>
	<path d="M330.42,541.65h-51.22c-4.57,0-8.28,3.71-8.28,8.28v41.81c0,4.57,3.71,8.28,8.28,8.28h51.22c4.57,0,8.28-3.71,8.28-8.28
		v-41.81C338.7,545.36,334.99,541.65,330.42,541.65z"/>
	<path d="M330.42,652.08h-51.22c-4.57,0-8.28,3.71-8.28,8.28v41.81c0,4.57,3.71,8.28,8.28,8.28h51.22c4.57,0,8.28-3.71,8.28-8.28
		v-41.81C338.7,655.79,334.99,652.08,330.42,652.08z"/>
	<path d="M880.89,652.08h-51.22c-4.57,0-8.28,3.71-8.28,8.28v41.81c0,4.57,3.71,8.28,8.28,8.28h51.22c4.57,0,8.28-3.71,8.28-8.28
		v-41.81C889.17,655.79,885.47,652.08,880.89,652.08z"/>
	<path d="M415.29,379.18h51.22c4.57,0,8.28-3.71,8.28-8.28v-41.81c0-4.57-3.71-8.28-8.28-8.28h-51.22c-4.57,0-8.28,3.71-8.28,8.28
		v41.81C407.01,375.48,410.71,379.18,415.29,379.18z"/>
	<path d="M415.29,489.61h51.22c4.57,0,8.28-3.71,8.28-8.28v-41.81c0-4.57-3.71-8.28-8.28-8.28h-51.22c-4.57,0-8.28,3.71-8.28,8.28
		v41.81C407.01,485.9,410.71,489.61,415.29,489.61z"/>
	<path d="M415.29,600.02h51.22c4.57,0,8.28-3.71,8.28-8.28v-41.81c0-4.57-3.71-8.28-8.28-8.28h-51.22c-4.57,0-8.28,3.71-8.28,8.28
		v41.81C407.01,596.32,410.71,600.02,415.29,600.02z"/>
	<path d="M829.47,379.18h51.23c4.57,0,8.28-3.71,8.28-8.28v-41.81c0-4.57-3.71-8.28-8.28-8.28h-51.23c-4.57,0-8.28,3.71-8.28,8.28
		v41.81C821.19,375.48,824.9,379.18,829.47,379.18z"/>
	<path d="M693.38,379.18h51.22c4.57,0,8.28-3.71,8.28-8.28v-41.81c0-4.57-3.71-8.28-8.28-8.28h-51.22c-4.57,0-8.28,3.71-8.28,8.28
		v41.81C685.1,375.48,688.81,379.18,693.38,379.18z"/>
	<path d="M744.6,541.65h-51.22c-4.57,0-8.28,3.71-8.28,8.28v41.81c0,4.57,3.71,8.28,8.28,8.28h51.22c4.57,0,8.28-3.71,8.28-8.28
		v-41.81C752.88,545.36,749.18,541.65,744.6,541.65z"/>
	<path d="M889.17,445.1c0-7.65-6.2-13.85-13.85-13.85H698.95c-7.65,0-13.85,6.2-13.85,13.85v30.67c0,7.65,6.2,13.85,13.85,13.85
		h86.1c7.65,0,13.85,6.2,13.85,13.85v53.52c0,7.65,6.2,13.85,13.85,13.85h62.58c7.65,0,13.85-6.2,13.85-13.85v-83.53h0V445.1z"/>
	<path d="M557.29,379.18h51.22c4.57,0,8.28-3.71,8.28-8.28v-41.81c0-4.57-3.71-8.28-8.28-8.28h-51.22c-4.57,0-8.28,3.71-8.28,8.28
		v41.81C549.01,375.48,552.72,379.18,557.29,379.18z"/>
	<path d="M557.29,489.61h51.22c4.57,0,8.28-3.71,8.28-8.28v-41.81c0-4.57-3.71-8.28-8.28-8.28h-51.22c-4.57,0-8.28,3.71-8.28,8.28
		v41.81C549.01,485.9,552.72,489.61,557.29,489.61z"/>
	<path d="M557.29,600.02h51.22c4.57,0,8.28-3.71,8.28-8.28v-41.81c0-4.57-3.71-8.28-8.28-8.28h-51.22c-4.57,0-8.28,3.71-8.28,8.28
		v41.81C549.01,596.32,552.72,600.02,557.29,600.02z"/>
	<path d="M744.6,652.08H415.29c-4.57,0-8.28,3.71-8.28,8.28v41.81c0,4.57,3.71,8.28,8.28,8.28H744.6c4.57,0,8.28-3.71,8.28-8.28
		v-41.81C752.88,655.79,749.18,652.08,744.6,652.08z"/>
</g>
</svg>
